<svg width="136" height="56" viewBox="0 0 136 56" fill="none" xmlns="http://www.w3.org/2000/svg">
<g clip-path="url(#clip0_1133_1136)">
<path d="M0 24.3354V29.2599C1.69536 29.2588 3.37431 29.5894 4.94079 30.233C6.50727 30.8766 7.93052 31.8204 9.12912 33.0106C10.3274 34.2002 11.2777 35.6127 11.9257 37.1672C12.5737 38.7217 12.9067 40.3877 12.9056 42.0699H17.8633C17.8588 37.3684 15.9755 32.8607 12.6265 29.5359C9.27759 26.2111 4.7366 24.3408 0 24.3354H0Z" fill="white"/>
<path d="M24.7944 15.4697H16.9375C20.9121 17.9699 24.28 21.3123 26.7994 25.2571V17.4584C26.799 16.9309 26.5876 16.425 26.2116 16.0521C25.8357 15.6792 25.3259 15.4697 24.7944 15.4697Z" fill="white"/>
<path d="M4.93657 15.4697H0V19.9035C5.92089 19.9096 11.5975 22.2469 15.7843 26.4026C19.9711 30.5582 22.326 36.1927 22.3323 42.0697H26.7985V37.1697C25.7887 31.7843 23.1596 26.8286 19.2572 22.9552C15.3548 19.0817 10.3622 16.472 4.93657 15.4697Z" fill="white"/>
<path d="M38.9494 18.3979H35.8027V34.1409H38.9494V18.3979Z" fill="white"/>
<path d="M50.5199 25.2186C49.996 24.7459 49.3829 24.3812 48.7159 24.1455C47.2832 23.6462 45.7219 23.6462 44.2892 24.1455C43.622 24.381 43.0086 24.7458 42.4846 25.2186C41.9707 25.6889 41.5601 26.2594 41.2786 26.8944C40.9877 27.5872 40.8379 28.3303 40.8379 29.0809C40.8379 29.8314 40.9877 30.5745 41.2786 31.2673C41.5591 31.9042 41.9697 32.4762 42.4846 32.9473C43.0076 33.4205 43.6207 33.7851 44.2878 34.0197C45.7203 34.52 47.282 34.52 48.7145 34.0197C49.3818 33.7851 49.9951 33.4205 50.5185 32.9473C51.0331 32.4761 51.4437 31.904 51.7244 31.2673C52.0153 30.5745 52.1651 29.8314 52.1651 29.0809C52.1651 28.3303 52.0153 27.5872 51.7244 26.8944C51.4432 26.2596 51.0331 25.6891 50.5199 25.2186ZM48.3591 30.9348C47.8495 31.3904 47.188 31.6425 46.5022 31.6425C45.8164 31.6425 45.1549 31.3904 44.6454 30.9348C44.2171 30.41 43.9834 29.7552 43.9834 29.0798C43.9834 28.4045 44.2171 27.7496 44.6454 27.2248C45.1549 26.7692 45.8164 26.5171 46.5022 26.5171C47.188 26.5171 47.8495 26.7692 48.3591 27.2248C48.7874 27.7496 49.021 28.4045 49.021 29.0798C49.021 29.7552 48.7874 30.41 48.3591 30.9348Z" fill="white"/>
<path d="M61.8182 25.3538H61.7787C61.6332 25.1511 61.4642 24.9659 61.2752 24.8022C61.0462 24.6012 60.7927 24.4295 60.5206 24.2912C59.8328 23.9409 59.0693 23.7624 58.2963 23.7711C57.6189 23.7594 56.949 23.9132 56.3457 24.2191C55.7835 24.5081 55.2871 24.9086 54.8873 25.3958C54.4796 25.898 54.1668 26.4693 53.9641 27.0821C53.7486 27.7135 53.6388 28.3756 53.639 29.0421C53.6311 29.7576 53.7519 30.4688 53.9959 31.1421C54.2169 31.7566 54.5615 32.3201 55.0086 32.7983C55.4541 33.2664 55.9947 33.635 56.5946 33.8798C57.2469 34.1437 57.946 34.2747 58.6504 34.2648C59.1713 34.2559 59.6864 34.1537 60.1708 33.9631C60.714 33.7586 61.1847 33.4 61.5241 32.932H61.5665V33.912C61.5783 34.2389 61.524 34.5648 61.4069 34.8705C61.2897 35.1763 61.1121 35.4556 60.8845 35.6921C60.5957 35.9458 60.258 36.1386 59.8919 36.2589C59.5259 36.3792 59.139 36.4246 58.7547 36.3921C58.1455 36.3989 57.5416 36.2782 56.9825 36.0379C56.4262 35.7912 55.9071 35.4689 55.4402 35.0803L53.699 37.6598C54.4107 38.2288 55.2426 38.6311 56.1327 38.8365C57.0135 39.0376 57.9144 39.1388 58.8182 39.1382C60.8041 39.1382 62.283 38.6419 63.2548 37.6493C64.2266 36.6567 64.7127 35.2026 64.7132 33.2869V24.021H61.8218L61.8182 25.3538ZM61.6292 29.9661C61.5051 30.2625 61.3232 30.5315 61.094 30.7578C60.8606 30.9887 60.587 31.1755 60.2865 31.3094C59.9744 31.447 59.6367 31.5181 59.2953 31.5181C58.9538 31.5181 58.6162 31.447 58.3041 31.3094C58.0076 31.1736 57.7375 30.9869 57.5065 30.7578C57.2763 30.5296 57.0937 30.2585 56.9691 29.9602C56.8445 29.6618 56.7803 29.342 56.7803 29.019C56.7803 28.6961 56.8445 28.3763 56.9691 28.0779C57.0937 27.7795 57.2763 27.5085 57.5065 27.2802C57.7377 27.0512 58.0077 26.8642 58.3041 26.7279C58.6163 26.5908 58.9539 26.52 59.2953 26.52C59.6367 26.52 59.9743 26.5908 60.2865 26.7279C60.5869 26.8623 60.8605 27.0494 61.094 27.2802C61.4401 27.6256 61.6757 28.0649 61.7709 28.5428C61.8662 29.0207 61.8169 29.516 61.6292 29.9661Z" fill="white"/>
<path d="M76.5336 25.2186C76.0097 24.7459 75.3965 24.3812 74.7296 24.1455C73.2969 23.6462 71.7356 23.6462 70.3029 24.1455C69.6357 24.381 69.0222 24.7458 68.4982 25.2186C67.9843 25.6889 67.5738 26.2594 67.2923 26.8944C67.0014 27.5872 66.8516 28.3303 66.8516 29.0809C66.8516 29.8314 67.0014 30.5745 67.2923 31.2673C67.5727 31.9042 67.9834 32.4762 68.4982 32.9473C69.0217 33.4206 69.6353 33.7853 70.3029 34.0197C71.7354 34.52 73.2971 34.52 74.7296 34.0197C75.3969 33.7851 76.0102 33.4205 76.5336 32.9473C77.0484 32.4762 77.4591 31.9042 77.7395 31.2673C78.0304 30.5745 78.1802 29.8314 78.1802 29.0809C78.1802 28.3303 78.0304 27.5872 77.7395 26.8944C77.458 26.2594 77.0474 25.6889 76.5336 25.2186ZM74.3727 30.9348C73.8632 31.3904 73.2017 31.6425 72.5159 31.6425C71.8301 31.6425 71.1686 31.3904 70.659 30.9348C70.2308 30.41 69.9971 29.7552 69.9971 29.0798C69.9971 28.4045 70.2308 27.7496 70.659 27.2248C71.1686 26.7692 71.8301 26.5171 72.5159 26.5171C73.2017 26.5171 73.8632 26.7692 74.3727 27.2248C74.801 27.7496 75.0347 28.4045 75.0347 29.0798C75.0347 29.7552 74.801 30.41 74.3727 30.9348Z" fill="white"/>
<path d="M82.3536 24.0908H80.666V34.1407H82.3536V24.0908Z" fill="white"/>
<path d="M81.5099 18.9377C81.3463 18.9346 81.1838 18.9655 81.0328 19.0283C80.8819 19.0911 80.7458 19.1844 80.6333 19.3024C80.4617 19.4741 80.3452 19.6924 80.2984 19.9298C80.2516 20.1671 80.2766 20.4129 80.3703 20.6362C80.464 20.8594 80.6222 21.0502 80.8249 21.1843C81.0277 21.3185 81.2659 21.3901 81.5095 21.3901C81.7532 21.3901 81.9914 21.3185 82.1941 21.1843C82.3969 21.0502 82.5551 20.8594 82.6488 20.6362C82.7425 20.4129 82.7675 20.1671 82.7207 19.9298C82.6739 19.6924 82.5574 19.4741 82.3858 19.3024C82.2734 19.1844 82.1375 19.091 81.9867 19.0282C81.8358 18.9654 81.6734 18.9346 81.5099 18.9377Z" fill="white"/>
<path d="M94.8377 25.3394C94.3629 24.8583 93.7919 24.4813 93.1613 24.2327C92.4693 23.962 91.7309 23.8272 90.9871 23.8358C90.2865 23.8279 89.5936 23.9825 88.9639 24.2873C88.3436 24.5935 87.7945 25.0248 87.3517 25.5536H87.3066V24.0906H85.6211V39.037H87.3066V32.359H87.3496C87.7078 32.9715 88.23 33.4735 88.8581 33.8094C89.5873 34.2147 90.4126 34.4187 91.2481 34.4002C91.9321 34.4045 92.6098 34.2692 93.2389 34.0026C93.8464 33.7469 94.3948 33.3705 94.8504 32.8966C95.313 32.4124 95.6768 31.8438 95.9216 31.2222C96.4407 29.8663 96.4407 28.3684 95.9216 27.0124C95.6746 26.3895 95.3063 25.821 94.8377 25.3394ZM94.2425 30.5894C94.0852 31.027 93.8391 31.4279 93.5194 31.7673C93.1998 32.1068 92.8134 32.3775 92.3842 32.5627C91.4351 32.9485 90.3713 32.9485 89.4223 32.5627C88.9924 32.3775 88.6055 32.1065 88.2855 31.7667C87.9654 31.4269 87.7192 31.0255 87.5619 30.5873C87.2306 29.6349 87.2306 28.5998 87.5619 27.6473C87.7192 27.2092 87.9654 26.8077 88.2855 26.4679C88.6055 26.1281 88.9924 25.8572 89.4223 25.6719C90.3713 25.2861 91.4351 25.2861 92.3842 25.6719C92.814 25.8572 93.201 26.1281 93.521 26.4679C93.841 26.8077 94.0873 27.2092 94.2446 27.6473C94.5758 28.5998 94.5758 29.6349 94.2446 30.5873L94.2425 30.5894Z" fill="white"/>
<path d="M104.811 29.1195C104.491 28.8815 104.134 28.6966 103.753 28.5721C103.336 28.4324 102.91 28.321 102.477 28.2389C102.153 28.1839 101.831 28.1124 101.514 28.0247C101.232 27.9486 100.957 27.8478 100.692 27.7237C100.48 27.6283 100.289 27.4933 100.128 27.3261C99.9912 27.1766 99.9177 26.9806 99.9226 26.7787C99.9193 26.5609 99.9836 26.3473 100.107 26.1669C100.228 25.9887 100.386 25.8386 100.571 25.7266C100.769 25.6078 100.985 25.5209 101.21 25.469C101.441 25.4123 101.678 25.3834 101.916 25.3829C102.368 25.369 102.815 25.4846 103.203 25.7161C103.553 25.9348 103.846 26.2327 104.057 26.5855L105.464 25.6622C105.152 25.052 104.646 24.561 104.024 24.2657C103.398 23.9769 102.714 23.8303 102.023 23.8366C101.555 23.8355 101.089 23.9006 100.639 24.0298C100.208 24.1519 99.7987 24.3409 99.4269 24.5898C99.0713 24.8281 98.7753 25.1439 98.5615 25.5131C98.3402 25.9063 98.2282 26.3508 98.2372 26.8011C98.2195 27.2419 98.3203 27.6794 98.5291 28.0688C98.7196 28.3945 98.9855 28.6705 99.3049 28.8738C99.6574 29.0945 100.04 29.2644 100.44 29.3785C100.873 29.5073 101.328 29.6219 101.803 29.7222C102.078 29.7796 102.345 29.844 102.604 29.9154C102.847 29.9802 103.08 30.0777 103.296 30.2052C103.487 30.3175 103.653 30.4674 103.783 30.6455C103.913 30.8428 103.977 31.0757 103.967 31.3112C103.975 31.5587 103.907 31.8027 103.772 32.0112C103.638 32.2088 103.461 32.3739 103.253 32.4942C103.029 32.6269 102.784 32.7216 102.528 32.7742C102.269 32.8308 102.004 32.8597 101.739 32.8603C101.213 32.8805 100.692 32.7539 100.235 32.4949C99.8148 32.2295 99.445 31.8925 99.1427 31.4995L97.8027 32.5306C98.2175 33.17 98.8063 33.6797 99.5009 34.0006C100.213 34.2811 100.974 34.4163 101.74 34.3982C102.239 34.3986 102.736 34.3411 103.221 34.2267C103.683 34.1208 104.122 33.9355 104.519 33.6793C104.899 33.4293 105.213 33.0934 105.436 32.6993C105.678 32.2521 105.798 31.7495 105.783 31.2419C105.797 30.8055 105.708 30.372 105.524 29.9756C105.356 29.6396 105.112 29.3466 104.811 29.1195Z" fill="white"/>
<path d="M116.97 31.7572V24.0908H115.282V28.9908C115.287 29.5191 115.226 30.0459 115.098 30.5588C114.99 30.9985 114.798 31.4137 114.534 31.7824C114.283 32.1252 113.947 32.3986 113.56 32.5769C113.114 32.7733 112.631 32.869 112.143 32.8569C111.814 32.8834 111.482 32.8309 111.177 32.7038C110.872 32.5768 110.603 32.3789 110.391 32.1268C109.985 31.5414 109.787 30.839 109.827 30.1297V24.0908H108.139V30.297C108.134 30.8596 108.21 31.42 108.366 31.9609C108.502 32.4405 108.743 32.8844 109.071 33.2608C109.4 33.6288 109.811 33.9163 110.27 34.1008C110.818 34.313 111.402 34.4153 111.99 34.4018C112.386 34.405 112.779 34.3505 113.159 34.2401C113.501 34.1411 113.828 33.9968 114.132 33.811C114.408 33.6423 114.659 33.4364 114.878 33.1992C115.075 32.9882 115.239 32.7492 115.365 32.4901H115.408C115.408 32.7771 115.416 33.0571 115.43 33.3301C115.445 33.6031 115.452 33.8752 115.451 34.1463H117.053C117.053 33.8164 117.038 33.4512 117.009 33.0508C116.98 32.6504 116.967 32.2192 116.97 31.7572Z" fill="white"/>
<path d="M135.209 26.2925C135.096 25.8062 134.874 25.3515 134.559 24.9625C134.241 24.5861 133.832 24.2969 133.369 24.1225C132.787 23.9139 132.171 23.8156 131.552 23.8327C130.88 23.8036 130.216 23.9797 129.648 24.3374C129.122 24.7121 128.68 25.1912 128.35 25.7444C128.264 25.5722 128.152 25.3753 128.015 25.1536C127.862 24.9142 127.668 24.7034 127.441 24.5306C127.163 24.3208 126.854 24.1555 126.524 24.0406C126.082 23.8929 125.617 23.8237 125.15 23.8362C124.755 23.833 124.361 23.8874 123.982 23.9979C123.64 24.0969 123.312 24.2412 123.008 24.427C122.732 24.596 122.481 24.8018 122.262 25.0388C122.065 25.2498 121.901 25.4888 121.775 25.7479H121.732C121.732 25.4609 121.725 25.1823 121.711 24.9079C121.697 24.6335 121.689 24.364 121.689 24.0917H120.088C120.088 24.4216 120.102 24.7868 120.131 25.1872C120.16 25.5876 120.174 26.0172 120.174 26.4759V34.1416H121.863V29.2458C121.858 28.7173 121.919 28.1902 122.047 27.6771C122.155 27.2372 122.346 26.8219 122.611 26.4535C122.862 26.1106 123.197 25.8371 123.584 25.659C124.03 25.4625 124.514 25.3668 125.002 25.379C125.291 25.3545 125.581 25.4064 125.843 25.5293C126.105 25.6523 126.33 25.8419 126.494 26.079C126.856 26.8155 127.014 27.6349 126.949 28.452V34.143H128.633V28.3428C128.628 27.9295 128.698 27.5186 128.839 27.1297C128.964 26.7849 129.156 26.4677 129.403 26.1959C129.637 25.9414 129.92 25.7368 130.236 25.5946C130.555 25.4511 130.902 25.3778 131.253 25.3797C131.67 25.3647 132.084 25.4454 132.465 25.6156C132.764 25.7593 133.024 25.9734 133.221 26.2393C133.411 26.5025 133.544 26.8022 133.611 27.1192C133.683 27.4509 133.72 27.7893 133.719 28.1286V34.1416H135.403V28.0425C135.409 27.4535 135.344 26.8659 135.209 26.2925Z" fill="white"/>
</g>
<defs>
<clipPath id="clip0_1133_1136">
<rect width="135.403" height="56" fill="white"/>
</clipPath>
</defs>
</svg>
